HIERARCHY
ROOT root
{
	OFFSET 0.000000 0.000000 0.000000
	CHANNELS 6 Xposition Yposition Zposition Zrotation Yrotation Xrotation
	JOINT lhip
	{
		OFFSET 0.058581 -0.082280 -0.017664
		CHANNELS 3 Zrotation Yrotation Xrotation
		JOINT lknee
		{
			OFFSET 0.043451 -0.386469 0.008037
			CHANNELS 3 Zrotation Yrotation Xrotation
			JOINT lankle
			{
				OFFSET -0.014790 -0.426874 -0.037428
				CHANNELS 3 Zrotation Yrotation Xrotation
				JOINT ltoe
				{
					OFFSET 0.041054 -0.060286 0.122042
					CHANNELS 3 Zrotation Yrotation Xrotation
					End Site
					{
						OFFSET 0.000000 0.000000 0.000000
					}
				}
			}
		}
	}
	JOINT rhip
	{
		OFFSET -0.060310 -0.090513 -0.013543
		CHANNELS 3 Zrotation Yrotation Xrotation
		JOINT rknee
		{
			OFFSET -0.043257 -0.383688 -0.004843
			CHANNELS 3 Zrotation Yrotation Xrotation
			JOINT rankle
			{
				OFFSET 0.019056 -0.420046 -0.034562
				CHANNELS 3 Zrotation Yrotation Xrotation
				JOINT rtoe
				{
					OFFSET -0.034840 -0.062106 0.130323
					CHANNELS 3 Zrotation Yrotation Xrotation
					End Site
					{
						OFFSET 0.000000 0.000000 0.000000
					}
				}
			}
		}
	}
	JOINT lowerback
	{
		OFFSET 0.004439 0.124404 -0.038385
		CHANNELS 3 Zrotation Yrotation Xrotation
		JOINT upperback
		{
			OFFSET 0.004488 0.137956 0.026820
			CHANNELS 3 Zrotation Yrotation Xrotation
			JOINT chest
			{
				OFFSET -0.002265 0.056032 0.002855
				CHANNELS 3 Zrotation Yrotation Xrotation
				JOINT lowerneck
				{
					OFFSET -0.013390 0.211636 -0.033468
					CHANNELS 3 Zrotation Yrotation Xrotation
					JOINT upperneck
					{
						OFFSET 0.010113 0.088937 0.050410
						CHANNELS 3 Zrotation Yrotation Xrotation
						End Site
						{
							OFFSET 0.000000 0.000000 0.000000
						}
					}
				}
				JOINT lclavicle
				{
					OFFSET 0.071702 0.114000 -0.018898
					CHANNELS 3 Zrotation Yrotation Xrotation
					JOINT lshoulder
					{
						OFFSET 0.122921 0.045205 -0.019046
						CHANNELS 3 Zrotation Yrotation Xrotation
						JOINT lelbow
						{
							OFFSET 0.255332 -0.015649 -0.022946
							CHANNELS 3 Zrotation Yrotation Xrotation
							JOINT lwrist
							{
								OFFSET 0.265709 0.012698 -0.007375
								CHANNELS 3 Zrotation Yrotation Xrotation
								End Site
								{
									OFFSET 0.000000 0.000000 0.000000
								}
							}
						}
					}
				}
				JOINT rclavicle
				{
					OFFSET -0.082954 0.112472 -0.023707
					CHANNELS 3 Zrotation Yrotation Xrotation
					JOINT rshoulder
					{
						OFFSET -0.113228 0.046853 -0.008472
						CHANNELS 3 Zrotation Yrotation Xrotation
						JOINT relbow
						{
							OFFSET -0.260127 -0.014369 -0.031269
							CHANNELS 3 Zrotation Yrotation Xrotation
							JOINT rwrist
							{
								OFFSET -0.269108 0.006794 -0.006027
								CHANNELS 3 Zrotation Yrotation Xrotation
								End Site
								{
									OFFSET 0.000000 0.000000 0.000000
								}
							}
						}
					}
				}
			}
		}
	}
}
MOTION
Frames: 8
Frame Time: 0.033333
-1.677459 1.677189 0.970480 44.229516 -0.299896 93.877472 -4.017325 -1.553661 2.167566 6.014316 2.932851 -9.438099 1.723308 11.947553 -10.903223 0.000000 -0.000000 0.000000 3.060019 2.648203 -12.369299 -6.910222 -5.095884 5.624497 0.341668 -12.699284 -14.695296 0.000000 -0.000000 0.000000 0.043450 0.341231 12.601962 -1.817047 -0.631677 9.762183 1.491783 0.740655 -4.353575 -7.909463 3.804331 -6.633713 1.552482 1.236172 -5.260617 -23.317670 -8.434394 8.191345 -58.206596 -6.007269 3.313555 18.150437 -33.571430 -5.650852 2.197143 -23.366611 3.137370 22.008628 14.983972 12.683752 59.013231 6.016279 8.942721 -16.940083 33.690665 -5.710333 -0.108281 10.942326 0.048833 
-1.678384 1.671759 0.970404 44.604677 -0.182600 94.698053 -3.311405 -0.194227 0.915317 5.810704 2.067854 -8.657917 1.040003 10.698511 -11.252663 0.000000 -0.000000 0.000000 3.593683 2.246833 -12.881829 -7.001848 -5.143231 5.269610 -0.145384 -12.589014 -14.767535 0.000000 -0.000000 0.000000 0.593188 -0.092090 12.670094 -2.002657 -0.801236 9.017234 1.513133 0.684888 -4.131231 -8.303270 3.751285 -7.327305 1.643321 1.644024 -6.317082 -23.462894 -8.843967 8.291061 -58.322174 -5.415282 3.456379 19.140744 -34.172547 -5.369415 5.070177 -24.229838 0.827583 21.692172 15.181627 13.009159 59.034125 5.854815 8.698005 -16.979314 34.942781 -4.852480 -1.923502 10.925291 -1.224734 
-1.679211 1.666266 0.970544 44.822379 -0.225870 94.778113 -3.155524 -2.063087 1.364309 6.058894 2.947691 -8.913785 0.890505 11.455613 -10.970473 0.000000 -0.000000 0.000000 3.802138 2.628986 -12.452825 -6.883091 -5.209971 4.849186 -0.269360 -13.228767 -14.878232 0.000000 -0.000000 0.000000 1.049290 -0.256109 13.191417 -2.052631 -0.999576 8.977017 1.422085 0.502587 -3.960309 -8.596629 3.624326 -8.584296 1.278469 1.687637 -7.162198 -23.436425 -8.979019 8.315999 -58.374020 -5.701009 3.540490 20.033714 -34.385318 -6.344914 4.264332 -24.195669 0.363202 21.269541 15.478184 12.907902 59.136380 5.977974 9.184657 -17.813952 35.428512 -5.296156 -1.516999 10.981494 -1.754570 
-1.681101 1.658821 0.970745 44.893508 -0.253401 95.542069 -2.424265 0.178192 0.234968 5.727507 2.084896 -8.186300 0.413756 9.841314 -11.371527 0.000000 -0.000000 0.000000 4.295470 2.171634 -13.090614 -6.902602 -4.933956 4.976820 -0.587076 -12.839704 -14.899770 0.000000 -0.000000 0.000000 1.081284 -0.309136 13.113885 -1.951644 -0.968234 9.026400 1.724383 0.299030 -3.918684 -9.355575 3.626372 -10.411009 1.068610 2.021540 -8.166318 -23.200876 -9.724461 8.384010 -58.614370 -5.371273 3.208420 19.820574 -34.799350 -5.287695 6.090055 -24.772902 -0.651600 20.846238 16.023103 12.979515 58.934110 5.863567 8.526577 -17.761506 36.335162 -4.941742 -1.751594 11.231935 -1.846876 
-1.682065 1.655137 0.970721 44.892517 -0.437800 95.816756 -2.324666 0.550301 -0.162399 5.711397 1.978048 -7.721908 0.223165 9.556269 -11.634100 0.000000 -0.000000 0.000000 4.315045 2.033440 -13.191247 -6.777556 -4.888728 4.869802 -0.586011 -12.770642 -14.988404 0.000000 -0.000000 0.000000 1.063203 -0.308050 13.359908 -1.987692 -0.988453 8.985145 1.854827 0.173918 -3.843617 -9.754350 3.667038 -11.769270 0.668988 2.282927 -8.535920 -23.223487 -10.048059 8.403412 -58.803893 -5.321025 3.054900 20.295055 -35.082123 -5.833545 6.400805 -24.763920 -0.687915 20.614094 16.248515 12.899198 58.759806 5.961010 8.365638 -17.690858 36.754963 -5.072183 -1.581640 11.248526 -1.857133 
-1.683773 1.650593 0.970652 45.126616 -0.586376 96.179202 -2.187443 -0.062845 -0.436085 5.882699 2.296171 -7.642572 0.119463 9.738631 -11.517573 0.000000 -0.000000 0.000000 4.417539 2.124476 -13.483840 -6.699367 -4.899777 5.017760 -0.683025 -13.137817 -15.216832 0.000000 -0.000000 0.000000 1.254277 -0.526158 13.784984 -2.003599 -1.113210 8.734712 1.831629 0.079522 -3.765792 -10.144716 3.711601 -13.018097 0.202890 2.616329 -9.180912 -22.817624 -10.568027 8.721077 -59.185640 -5.835974 3.321345 21.029070 -34.694494 -7.052752 8.308019 -25.349889 -2.550633 20.296814 16.670847 12.757361 58.906080 6.251647 8.631074 -18.347548 36.404475 -5.853288 -2.628751 11.340740 -1.811814 
-1.685431 1.646502 0.970443 44.878512 -0.705538 96.416685 -1.958955 -0.318400 -0.560597 5.781479 2.895413 -7.487907 -0.035391 9.756843 -11.412606 0.000000 -0.000000 0.000000 4.562513 2.455546 -13.639993 -6.592457 -4.683339 5.049814 -0.935661 -13.345892 -15.383652 0.000000 -0.000000 0.000000 1.416094 -0.553754 14.167182 -2.115048 -1.077083 8.896658 1.902036 0.013765 -3.724879 -10.909061 4.003191 -14.311766 -0.329998 3.105381 -9.843966 -22.945772 -10.946123 8.535119 -59.140072 -5.816275 2.944514 21.556935 -35.300705 -7.520070 7.461377 -25.482754 -1.675347 19.946982 17.297728 12.693831 58.854246 6.479527 8.616038 -18.719148 36.543676 -6.295796 -2.558542 11.143981 -1.759363 
-1.687030 1.642243 0.970197 45.087350 -0.780193 96.799069 -1.588356 0.501231 -1.140350 5.627555 2.570589 -7.145426 -0.467576 8.876783 -11.429030 0.000000 -0.000000 0.000000 4.845896 2.419855 -13.883728 -6.652222 -4.867110 5.007138 -1.263124 -13.121289 -15.581639 0.000000 -0.000000 0.000000 1.761385 -0.947206 14.454469 -2.335508 -1.113154 9.057716 1.917945 0.066378 -4.174671 -11.501857 3.648989 -14.550971 -0.656007 3.774542 -10.697158 -22.951675 -11.470847 8.759663 -59.521400 -5.867730 2.473456 22.787816 -35.396080 -8.841616 7.277698 -25.414861 -1.761659 19.518010 17.801018 12.906787 59.211347 6.764403 8.004499 -18.838323 36.637158 -6.586267 -2.189674 11.357948 -1.613752 
